# xmcd
#
# Track frame offsets: 
#        150
#        18540
#        36227
#        56370
#        69690
#        91740
#        111415
#        127040
#        139737
#        159277
#        180102
#        183527
#        200415
#        216277
#        234680
#        254577
#        272752
#        289950
#        312255
#
# Disc length: 4408 seconds
#
# Revision: 1
# Processed by: cddbd v1.5.2PL0 Copyright (c) Steve Scherf et al.
# Submitted via: ExactAudioCopy v0.99pb3
#
DISCID=1e113613
DTITLE=Various Artist - Threadgill's Supper Session - Second Helpings
DYEAR=1996
DGENRE=Country
TTITLE0=Champ Hood - The Ramblin Blues
TTITLE1=Champ Hood - Ashes of Love
TTITLE2=Champ Hood - Gold Watch and Chain
TTITLE3=Sarah Elizabeth Campbell - Faded Loves
TTITLE4=Sarah Elizabeth Campbell - I Just Drive Away
TTITLE5=Champ Hood - One Meatball
TTITLE6=Tish Hinojosa - The Vegetable Song (Barnyard Dance)
TTITLE7=Walter Hyatt - Stick With Me Baby
TTITLE8=Walter Hyatt - All By Myself
TTITLE9=Marvin Dykhuis - Stealin'
TTITLE10=Eddie Wilson - Eddie Wilson's Last Call For Food
TTITLE11=Gary Primich - Knock Me a Kiss
TTITLE12=Darcie Deaville - The Wandering Song
TTITLE13=Rich Brotherton - Guess Things Happen That Way
TTITLE14=Toni Price - Tonight the Bottle Let Me Down
TTITLE15=Toni Price - Sarah
TTITLE16=Marvin Dykhuis - After Hours
TTITLE17=Mandy Mercier - Turtle Blues
TTITLE18=Champ Hood - Diggy Liggy Lo
EXTD=
EXTT0=
EXTT1=
EXTT2=
EXTT3=
EXTT4=
EXTT5=
EXTT6=
EXTT7=
EXTT8=
EXTT9=
EXTT10=
EXTT11=
EXTT12=
EXTT13=
EXTT14=
EXTT15=
EXTT16=
EXTT17=
EXTT18=
PLAYORDER=
